<svg width="262" height="219" viewBox="0 0 262 219" fill="none" xmlns="http://www.w3.org/2000/svg">
<path d="M0.161683 116.236L36.8811 66.2045L128.909 105.244L106.263 160.356L0.161683 116.236Z" fill="#13065C"/>
<path d="M150.616 153.154L129.991 105.243L229.472 58.1837L257.663 99.9644L150.616 153.154Z" fill="#13065C"/>
<path d="M132.045 26.6996L159.059 0.141904L260.811 29.58L228.393 60.2252L132.045 26.6996Z" fill="#13065C"/>
<path d="M34.719 67.6354L0.0597878 43.2037L102.796 2.26039L132.047 27.7196L34.719 67.6354Z" fill="#13065C"/>
<path d="M39.198 175.749L39.1553 145.149L111.694 175.648L130.032 134.822L146.309 168.46L233.894 125.498L233.954 168.338L130.149 218.462L39.198 175.749Z" fill="#13065C"/>
</svg>
